<svg id="visual" viewBox="0 0 960 540" width="960" height="540" xmlns="http://www.w3.org/2000/svg" xmlns:xlink="http://www.w3.org/1999/xlink" version="1.1"><path d="M0 82L16 77.5C32 73 64 64 96 55C128 46 160 37 192 38.8C224 40.7 256 53.3 288 58.7C320 64 352 62 384 60.2C416 58.3 448 56.7 480 56.7C512 56.7 544 58.3 576 62.8C608 67.3 640 74.7 672 65.7C704 56.7 736 31.3 768 23.2C800 15 832 24 864 34C896 44 928 55 944 60.5L960 66L960 0L944 0C928 0 896 0 864 0C832 0 800 0 768 0C736 0 704 0 672 0C640 0 608 0 576 0C544 0 512 0 480 0C448 0 416 0 384 0C352 0 320 0 288 0C256 0 224 0 192 0C160 0 128 0 96 0C64 0 32 0 16 0L0 0Z" fill="#02122a"></path><path d="M0 109L16 110.8C32 112.7 64 116.3 96 108.2C128 100 160 80 192 71.8C224 63.7 256 67.3 288 78.2C320 89 352 107 384 108.8C416 110.7 448 96.3 480 97.3C512 98.3 544 114.7 576 121C608 127.3 640 123.7 672 114.7C704 105.7 736 91.3 768 85C800 78.7 832 80.3 864 88.3C896 96.3 928 110.7 944 117.8L960 125L960 64L944 58.5C928 53 896 42 864 32C832 22 800 13 768 21.2C736 29.3 704 54.7 672 63.7C640 72.7 608 65.3 576 60.8C544 56.3 512 54.7 480 54.7C448 54.7 416 56.3 384 58.2C352 60 320 62 288 56.7C256 51.3 224 38.7 192 36.8C160 35 128 44 96 53C64 62 32 71 16 75.5L0 80Z" fill="#30234c"></path><path d="M0 206L16 209.7C32 213.3 64 220.7 96 212.7C128 204.7 160 181.3 192 171.3C224 161.3 256 164.7 288 176.3C320 188 352 208 384 220.7C416 233.3 448 238.7 480 227C512 215.3 544 186.7 576 173.2C608 159.7 640 161.3 672 155.8C704 150.3 736 137.7 768 128.7C800 119.7 832 114.3 864 127.8C896 141.3 928 173.7 944 189.8L960 206L960 123L944 115.8C928 108.7 896 94.3 864 86.3C832 78.3 800 76.7 768 83C736 89.3 704 103.7 672 112.7C640 121.7 608 125.3 576 119C544 112.7 512 96.3 480 95.3C448 94.3 416 108.7 384 106.8C352 105 320 87 288 76.2C256 65.3 224 61.7 192 69.8C160 78 128 98 96 106.2C64 114.3 32 110.7 16 108.8L0 107Z" fill="#6b2e62"></path><path d="M0 239L16 250.7C32 262.3 64 285.7 96 289.2C128 292.7 160 276.3 192 274.5C224 272.7 256 285.3 288 299.8C320 314.3 352 330.7 384 353.2C416 375.7 448 404.3 480 410.5C512 416.7 544 400.3 576 391.3C608 382.3 640 380.7 672 354.7C704 328.7 736 278.3 768 252.2C800 226 832 224 864 232C896 240 928 258 944 267L960 276L960 204L944 187.8C928 171.7 896 139.3 864 125.8C832 112.3 800 117.7 768 126.7C736 135.7 704 148.3 672 153.8C640 159.3 608 157.7 576 171.2C544 184.7 512 213.3 480 225C448 236.7 416 231.3 384 218.7C352 206 320 186 288 174.3C256 162.7 224 159.3 192 169.3C160 179.3 128 202.7 96 210.7C64 218.7 32 211.3 16 207.7L0 204Z" fill="#a73766"></path><path d="M0 293L16 299.2C32 305.3 64 317.7 96 315.8C128 314 160 298 192 305.3C224 312.7 256 343.3 288 366.7C320 390 352 406 384 421.2C416 436.3 448 450.7 480 450.7C512 450.7 544 436.3 576 433.7C608 431 640 440 672 420.2C704 400.3 736 351.7 768 314.8C800 278 832 253 864 262C896 271 928 314 944 335.5L960 357L960 274L944 265C928 256 896 238 864 230C832 222 800 224 768 250.2C736 276.3 704 326.7 672 352.7C640 378.7 608 380.3 576 389.3C544 398.3 512 414.7 480 408.5C448 402.3 416 373.7 384 351.2C352 328.7 320 312.3 288 297.8C256 283.3 224 270.7 192 272.5C160 274.3 128 290.7 96 287.2C64 283.7 32 260.3 16 248.7L0 237Z" fill="#da4e58"></path><path d="M0 320L16 338.8C32 357.7 64 395.3 96 408.8C128 422.3 160 411.7 192 407.2C224 402.7 256 404.3 288 416.8C320 429.3 352 452.7 384 467C416 481.3 448 486.7 480 493.8C512 501 544 510 576 508.3C608 506.7 640 494.3 672 473.7C704 453 736 424 768 397.8C800 371.7 832 348.3 864 353.8C896 359.3 928 393.7 944 410.8L960 428L960 355L944 333.5C928 312 896 269 864 260C832 251 800 276 768 312.8C736 349.7 704 398.3 672 418.2C640 438 608 429 576 431.7C544 434.3 512 448.7 480 448.7C448 448.7 416 434.3 384 419.2C352 404 320 388 288 364.7C256 341.3 224 310.7 192 303.3C160 296 128 312 96 313.8C64 315.7 32 303.3 16 297.2L0 291Z" fill="#f9773d"></path><path d="M0 541L16 541C32 541 64 541 96 541C128 541 160 541 192 541C224 541 256 541 288 541C320 541 352 541 384 541C416 541 448 541 480 541C512 541 544 541 576 541C608 541 640 541 672 541C704 541 736 541 768 541C800 541 832 541 864 541C896 541 928 541 944 541L960 541L960 426L944 408.8C928 391.7 896 357.3 864 351.8C832 346.3 800 369.7 768 395.8C736 422 704 451 672 471.7C640 492.3 608 504.7 576 506.3C544 508 512 499 480 491.8C448 484.7 416 479.3 384 465C352 450.7 320 427.3 288 414.8C256 402.3 224 400.7 192 405.2C160 409.7 128 420.3 96 406.8C64 393.3 32 355.7 16 336.8L0 318Z" fill="#ffac0c"></path></svg>